:SAMPLES-PER-SECOND 30
:FRAME-RANGE 1-1770
:FULLY-SPECIFIED
:DEGREES
498
root  56.9159 38.6373 -3.96208 -178.861 -22.2719 -177.442
RightUpLeg  -19.953 6.69398 -3.38117
RightLeg  24.5856 -0.85868 -0.655376
RightFoot  -7.02666 -0.365105 8.40601
RightToes  -1.33073e-015 0 -3.6325e-017
Spine  -5.99558 -0.360626 6.02486
Spine1  10.4805 -0.640623 1.0309
HEad  -0.674045 62.4606 -14.9961
LeftShoulder1  0.834542 0.455622 -23.2576
LeftArm  5.72652 -2.41471 -52.1787
LeftForeArm  42.101 4.6919 -14.4638
LeftHand  -0.0249875 6.06603 1.15514
RightShoulder  1.03809 0.0125039 25.0989
RightArm  -29.2287 -11.3196 40.9407
RightForeArm  62.8359 -4.1445 1.97108
RightHand  0.0192198 -5.6889 -14.0255
LeftUpLeg  -6.3258 -1.3986 7.00772
LeftLeg  47.6379 -7.21266 -7.98322
LeftFoot  -3.17271 0.950128 -12.9965
LeftToes  1.09107e-011 -1.16422e-010 2.98337e-011
499
root  56.9122 38.6784 -4.6441 -179.133 -24.2608 -177.088
RightUpLeg  -18.5674 5.87614 -2.52313
RightLeg  24.9787 -1.94264 -1.21785
RightFoot  -8.36328 -0.266402 8.04451
RightToes  -1.33073e-015 0 -3.6325e-017
Spine  -5.11556 -0.293779 6.82186
Spine1  9.95608 -0.478512 1.242
HEad  -1.81646 61.1772 -15.5711
LeftShoulder1  0.793011 0.598346 -23.2673
LeftArm  5.2957 -1.81778 -51.7035
LeftForeArm  41.8346 5.2319 -14.432
LeftHand  -0.0238498 6.0397 1.34127
RightShoulder  1.10407 0.213615 25.2073
RightArm  -26.901 -10.0061 39.9875
RightForeArm  61.4225 -2.82898 3.31941
RightHand  0.042793 -5.8529 -14.8537
LeftUpLeg  -10.4767 -1.24712 7.81341
LeftLeg  52.9419 -4.79305 -6.32137
LeftFoot  -1.33963 0.9864 -11.1552
LeftToes  1.09107e-011 -1.16422e-010 2.98337e-011
500
root  56.8564 38.8172 -5.33044 -179.177 -25.5537 -177.463
RightUpLeg  -16.7092 4.64717 -2.37971
RightLeg  24.3814 -2.02201 -1.23149
RightFoot  -9.32366 -0.196148 7.52507
RightToes  -1.33073e-015 0 -3.6325e-017
Spine  -4.46044 0.0164655 7.15029
Spine1  9.56555 0.03253 0.697334
HEad  -2.26465 60.1695 -15.6721
LeftShoulder1  0.724115 0.842669 -23.3811
LeftArm  4.78892 -0.928485 -51.0619
LeftForeArm  41.1073 4.73314 -14.3314
LeftHand  -0.0242563 5.67753 1.86223
RightShoulder  1.20644 0.55588 25.0949
RightArm  -25.5678 -7.62046 39.3713
RightForeArm  61.6158 -3.195 3.8489
RightHand  0.0398741 -5.80576 -15.4948
LeftUpLeg  -13.615 -0.625199 7.54242
LeftLeg  55.3493 -2.37264 -3.19518
LeftFoot  -3.23202 0.646976 -8.84229
LeftToes  1.09107e-011 -1.16422e-010 2.98337e-011
501
root  56.7747 38.9379 -5.97479 -178.913 -26.9484 -177.942
RightUpLeg  -15.2026 3.24337 -2.43706
RightLeg  23.8273 -2.05122 -1.22072
RightFoot  -10.2143 -0.140056 7.16723
RightToes  -1.33073e-015 0 -3.6325e-017
Spine  -4.06979 0.277931 7.30712
Spine1  9.16168 0.438322 0.120639
HEad  -1.81701 59.3237 -15.2122
LeftShoulder1  0.638639 1.13819 -23.4493
LeftArm  5.05104 0.131555 -50.4384
LeftForeArm  39.855 3.22968 -14.3095
LeftHand  -0.027873 5.36219 1.62971
RightShoulder  1.3247 0.982714 24.7492
RightArm  -24.7574 -4.73882 39.0913
RightForeArm  62.7942 -4.55377 3.96531
RightHand  0.0606379 -5.93801 -16.0778
LeftUpLeg  -16.5663 -0.00577353 7.08497
LeftLeg  55.2816 -0.879805 -0.868088
LeftFoot  -4.5759 0.467822 -7.44443
LeftToes  1.09107e-011 -1.16422e-010 2.98337e-011
502
root  56.6442 39.0424 -6.58766 -178.634 -28.2351 -178.402
RightUpLeg  -13.692 1.40486 -2.59724
RightLeg  23.1452 -1.51317 -0.949722
RightFoot  -11.062 -0.0917317 6.77701
RightToes  -1.33073e-015 0 -3.6325e-017
Spine  -3.74026 0.609724 7.54654
Spine1  8.8049 0.888928 -0.433005
HEad  -1.21395 58.4969 -14.8705
LeftShoulder1  0.582763 1.32284 -23.3716
LeftArm  5.49404 1.27517 -50.1065
LeftForeArm  38.898 1.49304 -14.232
LeftHand  -0.0330798 4.88654 1.93384
RightShoulder  1.4347 1.4268 24.1646
RightArm  -24.522 -2.08336 39.0055
RightForeArm  63.9822 -5.58651 3.85132
RightHand  0.0286474 -5.71655 -15.6164
LeftUpLeg  -18.8594 0.974899 6.63002
LeftLeg  52.901 -0.148399 0.260935
LeftFoot  -5.42498 0.389312 -6.89976
LeftToes  1.09107e-011 -1.16422e-010 2.98337e-011
503
root  56.4785 39.1363 -7.18009 -178.325 -29.534 -178.746
RightUpLeg  -12.1855 -0.609299 -2.70735
RightLeg  22.2901 -0.886075 -0.699963
RightFoot  -11.8219 -0.0535625 6.37345
RightToes  -1.33073e-015 0 -3.6325e-017
Spine  -3.59228 0.929205 7.66119
Spine1  8.5629 1.23509 -0.815339
HEad  -0.706042 57.8231 -14.7325
LeftShoulder1  0.559401 1.41576 -23.5921
LeftArm  6.28953 2.19039 -49.6766
LeftForeArm  38.433 -0.23719 -14.131
LeftHand  -0.0376067 4.5855 2.11364
RightShoulder  1.50476 1.76215 23.5182
RightArm  -23.9553 0.962763 38.7406
RightForeArm  64.6924 -5.60515 4.11797
RightHand  0.0425976 -5.82429 -15.5552
LeftUpLeg  -20.664 2.16774 6.30134
LeftLeg  48.7669 0.326179 0.832013
LeftFoot  -6.35189 0.332561 -6.75493
LeftToes  1.09107e-011 -1.16422e-010 2.98337e-011
504
root  56.2807 39.2363 -7.7496 -177.883 -30.7572 -179.178
RightUpLeg  -10.6635 -2.6189 -2.98594
RightLeg  21.1608 -0.140139 -0.414182
RightFoot  -12.4201 -0.0267982 6.1077
RightToes  -1.33073e-015 0 -3.6325e-017
Spine  -3.5883 1.2164 7.49621
Spine1  8.34189 1.52526 -1.15179
HEad  -0.0042584 57.2206 -14.3944
LeftShoulder1  0.603603 1.28019 -23.8035
LeftArm  6.97278 2.74062 -49.2429
LeftForeArm  38.1952 -1.15687 -14.0794
LeftHand  -0.0388498 4.61742 2.4049
RightShoulder  1.60375 2.16478 23.135
RightArm  -23.6192 3.78102 38.3941
RightForeArm  65.4238 -5.60528 4.27987
RightHand  0.0780128 -6.08453 -15.7133
LeftUpLeg  -21.952 3.59788 5.88143
LeftLeg  43.12 0.901771 1.29843
LeftFoot  -6.80125 0.306624 -6.70271
LeftToes  1.09107e-011 -1.16422e-010 2.98337e-011
505
root  56.0417 39.3242 -8.29737 -177.374 -31.9357 -179.516
RightUpLeg  -9.1863 -4.07392 -3.23907
RightLeg  19.8749 0.0886032 -0.3216
RightFoot  -12.9039 -0.00599912 5.97992
RightToes  -1.33073e-015 0 -3.6325e-017
Spine  -3.73477 1.45333 7.32227
Spine1  8.27294 1.73917 -1.43242
HEad  0.436724 56.7102 -14.2571
LeftShoulder1  0.575694 1.38282 -23.9502
LeftArm  7.96354 2.91293 -48.9716
LeftForeArm  37.639 -1.62796 -14.1676
LeftHand  -0.03938 4.66018 2.55776
RightShoulder  1.6089 2.19547 23.0618
RightArm  -24.1292 6.39859 38.3802
RightForeArm  66.5565 -5.50329 3.91753
RightHand  0.102858 -6.25319 -15.9878
LeftUpLeg  -22.818 5.25253 5.59065
LeftLeg  36.3934 1.10255 1.23456
LeftFoot  -6.34568 0.32445 -6.56182
LeftToes  1.09107e-011 -1.16422e-010 2.98337e-011
506
root  55.7582 39.4149 -8.82386 -176.755 -33.243 179.983
RightUpLeg  -7.60431 -5.55672 -3.77836
RightLeg  18.4293 0.2364 -0.153427
RightFoot  -13.3153 0.0106495 5.86037
RightToes  -1.33073e-015 0 -3.6325e-017
Spine  -3.92071 1.52401 6.79075
Spine1  8.27543 1.77682 -1.59157
HEad  0.716699 56.2261 -14.071
LeftShoulder1  0.594876 1.3148 -23.8875
LeftArm  6.96472 2.94258 -48.9863
LeftForeArm  38.3225 -0.890429 -14.1477
LeftHand  -0.0387696 4.66055 2.51628
RightShoulder  1.62753 2.29211 22.8823
RightArm  -24.4393 8.78568 38.566
RightForeArm  66.533 -5.46719 3.69515
RightHand  0.0980887 -6.20034 -16.2802
LeftUpLeg  -23.179 5.90398 5.28763
LeftLeg  28.7303 1.10472 0.994673
LeftFoot  -4.88125 0.402957 -6.61768
LeftToes  1.09107e-011 -1.16422e-010 2.98337e-011
507
root  55.4211 39.5023 -9.33381 -176.08 -34.3726 179.524
RightUpLeg  -5.98059 -6.49367 -4.33201
RightLeg  16.7276 -0.00195718 -0.026887
RightFoot  -13.5178 0.0240373 6.09148
RightToes  -1.33073e-015 0 -3.6325e-017
Spine  -4.21362 1.56485 6.22064
Spine1  8.2914 1.78986 -1.73062
HEad  1.05909 55.8676 -13.9218
LeftShoulder1  0.628788 1.1999 -23.8662
LeftArm  6.11659 2.86912 -48.9582
LeftForeArm  38.6813 0.23539 -14.2042
LeftHand  -0.0355092 4.82998 2.39814
RightShoulder  1.64385 2.36677 22.7837
RightArm  -24.7949 10.8693 39.0306
RightForeArm  66.0413 -5.4433 3.44213
RightHand  0.100853 -6.20809 -16.4846
LeftUpLeg  -23.1118 5.25574 5.31524
LeftLeg  20.5289 2.12809 1.20661
LeftFoot  -2.44306 0.506175 -6.31398
LeftToes  1.09107e-011 -1.16422e-010 2.98337e-011
508
root  55.0306 39.5726 -9.82671 -175.303 -35.0841 178.979
RightUpLeg  -4.51032 -6.21946 -4.80107
RightLeg  15.0958 -0.946716 -0.393366
RightFoot  -13.7032 0.0424268 6.56551
RightToes  -1.33073e-015 0 -3.6325e-017
Spine  -4.4041 1.65758 5.57186
Spine1  8.20441 1.9176 -1.99354
HEad  1.47074 55.6942 -13.6964
LeftShoulder1  0.648666 1.14086 -23.9754
LeftArm  5.85476 2.79444 -48.7541
LeftForeArm  38.9411 1.29894 -14.3278
LeftHand  -0.0339242 4.89944 2.24133
RightShoulder  1.65023 2.4224 22.6044
RightArm  -25.1589 12.7285 39.9082
RightForeArm  65.6324 -5.4102 3.15352
RightHand  0.0931122 -6.13962 -16.7257
LeftUpLeg  -22.8176 3.96019 5.49836
LeftLeg  12.4722 4.35621 1.49195
LeftFoot  2.52987 0.621001 -5.23003
LeftToes  1.09107e-011 -1.16422e-010 2.98337e-011
509
root  54.5678 39.5813 -10.3138 -174.594 -35.5489 178.552
RightUpLeg  -3.27606 -5.618 -5.13268
RightLeg  13.9967 -1.96425 -0.947987
RightFoot  -14.1769 0.0846992 7.30393
RightToes  -1.33073e-015 0 -3.6325e-017
Spine  -4.60532 1.74437 5.12693
Spine1  8.18337 2.11231 -2.45536
HEad  1.86166 55.5714 -13.5412
LeftShoulder1  0.647623 1.14738 -24.0198
LeftArm  5.50949 2.72022 -48.5609
LeftForeArm  39.4102 2.40754 -14.4058
LeftHand  -0.0327614 4.93286 1.94365
RightShoulder  1.69795 2.62702 22.4097
RightArm  -25.187 14.1234 41.0264
RightForeArm  64.9454 -5.41796 3.04959
RightHand  0.0819787 -6.05999 -16.7532
LeftUpLeg  -22.7495 3.798 5.44092
LeftLeg  6.1139 6.4842 1.60475
LeftFoot  5.32649 0.757843 -5.39285
LeftToes  1.09107e-011 -1.16422e-010 2.98337e-011
